<?xml version="1.0" encoding="UTF-8" standalone="no"?>
<!DOCTYPE svg PUBLIC "-//W3C//DTD SVG 1.1//EN"
 "http://www.w3.org/Graphics/SVG/1.1/DTD/svg11.dtd">
<!-- Generated by graphviz version 2.40.1 (20161225.0304)
 -->
<!-- Title: G Pages: 1 -->
<svg width="597pt" height="626pt"
 viewBox="0.00 0.00 597.18 626.00" xmlns="http://www.w3.org/2000/svg" xmlns:xlink="http://www.w3.org/1999/xlink">
<g id="graph0" class="graph" transform="scale(1 1) rotate(0) translate(4 622)">
<title>G</title>
<polygon fill="#ffffff" stroke="transparent" points="-4,4 -4,-622 593.1845,-622 593.1845,4 -4,4"/>
<g id="clust1" class="cluster">
<title>cluster_Global</title>
<path fill="none" stroke="#c0c0c0" d="M20,-44C20,-44 569.1845,-44 569.1845,-44 575.1845,-44 581.1845,-50 581.1845,-56 581.1845,-56 581.1845,-598 581.1845,-598 581.1845,-604 575.1845,-610 569.1845,-610 569.1845,-610 20,-610 20,-610 14,-610 8,-604 8,-598 8,-598 8,-56 8,-56 8,-50 14,-44 20,-44"/>
<text text-anchor="middle" x="294.5923" y="-597.2" font-family="Times,serif" font-size="11.00" fill="#c0c0c0">Global</text>
</g>
<g id="clust2" class="cluster">
<title>cluster_\isp</title>
<path fill="none" stroke="#c0c0c0" d="M226.0923,-294C226.0923,-294 336.0923,-294 336.0923,-294 342.0923,-294 348.0923,-300 348.0923,-306 348.0923,-306 348.0923,-570 348.0923,-570 348.0923,-576 342.0923,-582 336.0923,-582 336.0923,-582 226.0923,-582 226.0923,-582 220.0923,-582 214.0923,-576 214.0923,-570 214.0923,-570 214.0923,-306 214.0923,-306 214.0923,-300 220.0923,-294 226.0923,-294"/>
<text text-anchor="middle" x="281.0923" y="-569.2" font-family="Times,serif" font-size="11.00" fill="#c0c0c0">isp</text>
</g>
<g id="clust3" class="cluster">
<title>cluster_\core</title>
<path fill="none" stroke="#c0c0c0" d="M28,-52C28,-52 346.0923,-52 346.0923,-52 352.0923,-52 358.0923,-58 358.0923,-64 358.0923,-64 358.0923,-274 358.0923,-274 358.0923,-280 352.0923,-286 346.0923,-286 346.0923,-286 28,-286 28,-286 22,-286 16,-280 16,-274 16,-274 16,-64 16,-64 16,-58 22,-52 28,-52"/>
<text text-anchor="middle" x="187.0461" y="-273.2" font-family="Times,serif" font-size="11.00" fill="#c0c0c0">core</text>
</g>
<g id="clust4" class="cluster">
<title>cluster_\inwx</title>
<path fill="none" stroke="#c0c0c0" d="M444.1845,-98C444.1845,-98 561.1845,-98 561.1845,-98 567.1845,-98 573.1845,-104 573.1845,-110 573.1845,-110 573.1845,-266 573.1845,-266 573.1845,-272 567.1845,-278 561.1845,-278 561.1845,-278 444.1845,-278 444.1845,-278 438.1845,-278 432.1845,-272 432.1845,-266 432.1845,-266 432.1845,-110 432.1845,-110 432.1845,-104 438.1845,-98 444.1845,-98"/>
<text text-anchor="middle" x="502.6845" y="-265.2" font-family="Times,serif" font-size="11.00" fill="#c0c0c0">inwx</text>
</g>
<!-- \\isp\\ISPDnssec -->
<g id="node1" class="node">
<title>\\isp\\ISPDnssec</title>
<polygon fill="none" stroke="#000000" points="319.5923,-554 242.5923,-554 242.5923,-518 319.5923,-518 319.5923,-554"/>
<text text-anchor="middle" x="281.0923" y="-533.2" font-family="Courier,monospace" font-size="11.00" fill="#000000">ISPDnssec</text>
</g>
<!-- \\isp\\DnssecRecordISP -->
<g id="node2" class="node">
<title>\\isp\\DnssecRecordISP</title>
<polygon fill="none" stroke="#000000" points="340.0923,-500 222.0923,-500 222.0923,-464 340.0923,-464 340.0923,-500"/>
<text text-anchor="middle" x="281.0923" y="-479.2" font-family="Courier,monospace" font-size="11.00" fill="#000000">DnssecRecordISP</text>
</g>
<!-- \\core\\DnssecRecord -->
<g id="node10" class="node">
<title>\\core\\DnssecRecord</title>
<polygon fill="none" stroke="#000000" points="122,-204 24,-204 24,-168 122,-168 122,-204"/>
<text text-anchor="middle" x="73" y="-183.2" font-family="Courier,monospace" font-size="11.00" fill="#000000">DnssecRecord</text>
</g>
<!-- \\isp\\DnssecRecordISP&#45;&gt;\\core\\DnssecRecord -->
<g id="edge2" class="edge">
<title>\\isp\\DnssecRecordISP&#45;&gt;\\core\\DnssecRecord</title>
<path fill="none" stroke="#000000" stroke-dasharray="1,5" d="M221.7626,-471.0726C211.6942,-467.227 201.9432,-462.0282 194,-455 119.5745,-389.1476 88.4538,-268.5541 77.7516,-214.0553"/>
<polygon fill="none" stroke="#000000" points="81.1625,-213.2546 75.8766,-204.0726 74.2828,-214.5468 81.1625,-213.2546"/>
</g>
<!-- \\isp\\ISPDnsApi -->
<g id="node3" class="node">
<title>\\isp\\ISPDnsApi</title>
<polygon fill="none" stroke="#000000" points="319.5923,-446 242.5923,-446 242.5923,-410 319.5923,-410 319.5923,-446"/>
<text text-anchor="middle" x="281.0923" y="-425.2" font-family="Courier,monospace" font-size="11.00" fill="#000000">ISPDnsApi</text>
</g>
<!-- \\isp\\ISPClientApi -->
<g id="node4" class="node">
<title>\\isp\\ISPClientApi</title>
<polygon fill="none" stroke="#000000" points="330.0923,-392 232.0923,-392 232.0923,-356 330.0923,-356 330.0923,-392"/>
<text text-anchor="middle" x="281.0923" y="-371.2" font-family="Courier,monospace" font-size="11.00" fill="#000000">ISPClientApi</text>
</g>
<!-- \\isp\\ISPConnector -->
<g id="node5" class="node">
<title>\\isp\\ISPConnector</title>
<polygon fill="none" stroke="#000000" points="330.0923,-338 232.0923,-338 232.0923,-302 330.0923,-302 330.0923,-338"/>
<text text-anchor="middle" x="281.0923" y="-317.2" font-family="Courier,monospace" font-size="11.00" fill="#000000">ISPConnector</text>
</g>
<!-- \\core\\DNSSecZone -->
<g id="node6" class="node">
<title>\\core\\DNSSecZone</title>
<polygon fill="none" stroke="#000000" points="323.0923,-258 239.0923,-258 239.0923,-222 323.0923,-222 323.0923,-258"/>
<text text-anchor="middle" x="281.0923" y="-237.2" font-family="Courier,monospace" font-size="11.00" fill="#000000">DNSSecZone</text>
</g>
<!-- \\core\\CONSOLE -->
<g id="node7" class="node">
<title>\\core\\CONSOLE</title>
<polygon fill="none" stroke="#000000" points="323.0923,-204 239.0923,-204 239.0923,-168 323.0923,-168 323.0923,-204"/>
<text text-anchor="start" x="247.0923" y="-189.2" font-family="Courier,monospace" font-size="11.00" fill="#000000">«abstract»</text>
<text text-anchor="start" x="257.0923" y="-177.2" font-family="Courier,monospace" font-size="11.00" fill="#000000">CONSOLE</text>
</g>
<!-- \\core\\DnssecRecordRemote -->
<g id="node8" class="node">
<title>\\core\\DnssecRecordRemote</title>
<polygon fill="none" stroke="#000000" points="350.0923,-150 212.0923,-150 212.0923,-114 350.0923,-114 350.0923,-150"/>
<text text-anchor="start" x="247.0923" y="-135.2" font-family="Courier,monospace" font-size="11.00" fill="#000000">«abstract»</text>
<text text-anchor="start" x="220.0923" y="-123.2" font-family="Courier,monospace" font-size="11.00" fill="#000000">DnssecRecordRemote</text>
</g>
<!-- \\core\\DnssecRecordRemote&#45;&gt;\\core\\DnssecRecord -->
<g id="edge3" class="edge">
<title>\\core\\DnssecRecordRemote&#45;&gt;\\core\\DnssecRecord</title>
<path fill="none" stroke="#000000" stroke-dasharray="1,5" d="M212.0896,-149.9062C186.0831,-156.6549 156.7693,-164.2618 131.7819,-170.7461"/>
<polygon fill="none" stroke="#000000" points="130.8779,-167.3647 122.0777,-173.2643 132.6363,-174.1402 130.8779,-167.3647"/>
</g>
<!-- \\core\\DnssecApi -->
<g id="node9" class="node">
<title>\\core\\DnssecApi</title>
<polygon fill="none" stroke="#000000" points="323.0923,-96 239.0923,-96 239.0923,-60 323.0923,-60 323.0923,-96"/>
<text text-anchor="start" x="247.0923" y="-81.2" font-family="Courier,monospace" font-size="11.00" fill="#000000">«abstract»</text>
<text text-anchor="start" x="250.5923" y="-69.2" font-family="Courier,monospace" font-size="11.00" fill="#000000">DnssecApi</text>
</g>
<!-- \\inwx\\DnssecApiInwx -->
<g id="node11" class="node">
<title>\\inwx\\DnssecApiInwx</title>
<polygon fill="none" stroke="#000000" points="554.6845,-196 450.6845,-196 450.6845,-160 554.6845,-160 554.6845,-196"/>
<text text-anchor="middle" x="502.6845" y="-175.2" font-family="Courier,monospace" font-size="11.00" fill="#000000">DnssecApiInwx</text>
</g>
<!-- \\inwx\\DnssecApiInwx&#45;&gt;\\core\\DnssecApi -->
<g id="edge1" class="edge">
<title>\\inwx\\DnssecApiInwx&#45;&gt;\\core\\DnssecApi</title>
<path fill="none" stroke="#000000" d="M450.7824,-159.8902C444.4056,-157.152 438.0682,-154.1722 432.1845,-151 401.351,-134.3761 399.543,-120.6112 368.1845,-105 357.224,-99.5435 344.9367,-94.9196 333.1247,-91.1232"/>
<polygon fill="none" stroke="#000000" points="333.9407,-87.7126 323.3541,-88.1287 331.8895,-94.4054 333.9407,-87.7126"/>
</g>
<!-- \\inwx\\DnssecRecordInwx -->
<g id="node12" class="node">
<title>\\inwx\\DnssecRecordInwx</title>
<polygon fill="none" stroke="#000000" points="565.1845,-250 440.1845,-250 440.1845,-214 565.1845,-214 565.1845,-250"/>
<text text-anchor="middle" x="502.6845" y="-229.2" font-family="Courier,monospace" font-size="11.00" fill="#000000">DnssecRecordInwx</text>
</g>
<!-- \\inwx\\DnssecRecordInwx&#45;&gt;\\core\\DnssecRecordRemote -->
<g id="edge4" class="edge">
<title>\\inwx\\DnssecRecordInwx&#45;&gt;\\core\\DnssecRecordRemote</title>
<path fill="none" stroke="#000000" d="M450.7824,-213.8902C444.4056,-211.152 438.0682,-208.1722 432.1845,-205 401.351,-188.3761 399.543,-174.6112 368.1845,-159 364.6196,-157.2253 360.9143,-155.5386 357.1307,-153.9399"/>
<polygon fill="none" stroke="#000000" points="358.1849,-150.5925 347.5995,-150.1467 355.5966,-157.0964 358.1849,-150.5925"/>
</g>
<!-- \\inwx\\INWXConnector -->
<g id="node13" class="node">
<title>\\inwx\\INWXConnector</title>
<polygon fill="none" stroke="#000000" points="554.6845,-142 450.6845,-142 450.6845,-106 554.6845,-106 554.6845,-142"/>
<text text-anchor="middle" x="502.6845" y="-121.2" font-family="Courier,monospace" font-size="11.00" fill="#000000">INWXConnector</text>
</g>
<!-- \\DNSAPI -->
<g id="node14" class="node">
<title>\\DNSAPI</title>
<polygon fill="none" stroke="#000000" points="531.1845,-88 474.1845,-88 474.1845,-52 531.1845,-52 531.1845,-88"/>
<text text-anchor="middle" x="502.6845" y="-67.2" font-family="Courier,monospace" font-size="11.00" fill="#000000">DNSAPI</text>
</g>
<!-- \\splitbrain\\phpcli\\CLI -->
<g id="node15" class="node">
<title>\\splitbrain\\phpcli\\CLI</title>
<ellipse fill="none" stroke="#000000" cx="281.0923" cy="-18" rx="87.1846" ry="18"/>
<text text-anchor="middle" x="281.0923" y="-14.3" font-family="Times,serif" font-size="14.00" fill="#c0c0c0">\splitbrain\phpcli\CLI</text>
</g>
<!-- \\DNSAPI&#45;&gt;\\splitbrain\\phpcli\\CLI -->
<g id="edge5" class="edge">
<title>\\DNSAPI&#45;&gt;\\splitbrain\\phpcli\\CLI</title>
<path fill="none" stroke="#000000" d="M474.1689,-63.3084C442.678,-55.9185 390.8711,-43.7613 348.8465,-33.8996"/>
<polygon fill="none" stroke="#000000" points="349.4786,-30.4529 338.9434,-31.5756 347.8793,-37.2678 349.4786,-30.4529"/>
</g>
</g>
</svg>
