<?xml version="1.0" encoding="UTF-8" standalone="no"?>
<!DOCTYPE svg PUBLIC "-//W3C//DTD SVG 1.1//EN"
 "http://www.w3.org/Graphics/SVG/1.1/DTD/svg11.dtd">
<!-- Generated by graphviz version 2.40.1 (20161225.0304)
 -->
<!-- Title: G Pages: 1 -->
<svg width="597pt" height="698pt"
 viewBox="0.00 0.00 597.18 698.00" xmlns="http://www.w3.org/2000/svg" xmlns:xlink="http://www.w3.org/1999/xlink">
<g id="graph0" class="graph" transform="scale(1 1) rotate(0) translate(4 694)">
<title>G</title>
<polygon fill="#ffffff" stroke="transparent" points="-4,4 -4,-694 593.1845,-694 593.1845,4 -4,4"/>
<g id="clust1" class="cluster">
<title>cluster_Global</title>
<path fill="none" stroke="#c0c0c0" d="M20,-44C20,-44 569.1845,-44 569.1845,-44 575.1845,-44 581.1845,-50 581.1845,-56 581.1845,-56 581.1845,-670 581.1845,-670 581.1845,-676 575.1845,-682 569.1845,-682 569.1845,-682 20,-682 20,-682 14,-682 8,-676 8,-670 8,-670 8,-56 8,-56 8,-50 14,-44 20,-44"/>
<text text-anchor="middle" x="294.5923" y="-669.2" font-family="Times,serif" font-size="11.00" fill="#c0c0c0">Global</text>
</g>
<g id="clust2" class="cluster">
<title>cluster_\isp</title>
<path fill="none" stroke="#c0c0c0" d="M28,-420C28,-420 336.0923,-420 336.0923,-420 342.0923,-420 348.0923,-426 348.0923,-432 348.0923,-432 348.0923,-642 348.0923,-642 348.0923,-648 342.0923,-654 336.0923,-654 336.0923,-654 28,-654 28,-654 22,-654 16,-648 16,-642 16,-642 16,-432 16,-432 16,-426 22,-420 28,-420"/>
<text text-anchor="middle" x="182.0461" y="-641.2" font-family="Times,serif" font-size="11.00" fill="#c0c0c0">isp</text>
</g>
<g id="clust3" class="cluster">
<title>cluster_\inwx</title>
<path fill="none" stroke="#c0c0c0" d="M233.0923,-98C233.0923,-98 561.1845,-98 561.1845,-98 567.1845,-98 573.1845,-104 573.1845,-110 573.1845,-110 573.1845,-212 573.1845,-212 573.1845,-218 567.1845,-224 561.1845,-224 561.1845,-224 233.0923,-224 233.0923,-224 227.0923,-224 221.0923,-218 221.0923,-212 221.0923,-212 221.0923,-110 221.0923,-110 221.0923,-104 227.0923,-98 233.0923,-98"/>
<text text-anchor="middle" x="397.1384" y="-211.2" font-family="Times,serif" font-size="11.00" fill="#c0c0c0">inwx</text>
</g>
<g id="clust4" class="cluster">
<title>cluster_\core</title>
<path fill="none" stroke="#c0c0c0" d="M28,-232C28,-232 346.0923,-232 346.0923,-232 352.0923,-232 358.0923,-238 358.0923,-244 358.0923,-244 358.0923,-400 358.0923,-400 358.0923,-406 352.0923,-412 346.0923,-412 346.0923,-412 28,-412 28,-412 22,-412 16,-406 16,-400 16,-400 16,-244 16,-244 16,-238 22,-232 28,-232"/>
<text text-anchor="middle" x="187.0461" y="-399.2" font-family="Times,serif" font-size="11.00" fill="#c0c0c0">core</text>
</g>
<!-- \\isp\\ISPDnsApi -->
<g id="node1" class="node">
<title>\\isp\\ISPDnsApi</title>
<polygon fill="none" stroke="#000000" points="319.5923,-626 242.5923,-626 242.5923,-590 319.5923,-590 319.5923,-626"/>
<text text-anchor="middle" x="281.0923" y="-605.2" font-family="Courier,monospace" font-size="11.00" fill="#000000">ISPDnsApi</text>
</g>
<!-- \\isp\\ISPConnector -->
<g id="node2" class="node">
<title>\\isp\\ISPConnector</title>
<polygon fill="none" stroke="#000000" points="122,-572 24,-572 24,-536 122,-536 122,-572"/>
<text text-anchor="start" x="39" y="-557.2" font-family="Courier,monospace" font-size="11.00" fill="#000000">«abstract»</text>
<text text-anchor="start" x="32" y="-545.2" font-family="Courier,monospace" font-size="11.00" fill="#000000">ISPConnector</text>
</g>
<!-- \\isp\\ISPDnsApi&#45;&gt;\\isp\\ISPConnector -->
<g id="edge2" class="edge">
<title>\\isp\\ISPDnsApi&#45;&gt;\\isp\\ISPConnector</title>
<path fill="none" stroke="#000000" d="M242.4394,-597.9696C211.3905,-589.9124 167.2759,-578.4646 131.8433,-569.2698"/>
<polygon fill="none" stroke="#000000" points="132.6563,-565.865 122.0977,-566.7409 130.898,-572.6406 132.6563,-565.865"/>
</g>
<!-- \\isp\\ISPDnssec -->
<g id="node3" class="node">
<title>\\isp\\ISPDnssec</title>
<polygon fill="none" stroke="#000000" points="319.5923,-572 242.5923,-572 242.5923,-536 319.5923,-536 319.5923,-572"/>
<text text-anchor="middle" x="281.0923" y="-551.2" font-family="Courier,monospace" font-size="11.00" fill="#000000">ISPDnssec</text>
</g>
<!-- \\isp\\ISPDnssec&#45;&gt;\\isp\\ISPConnector -->
<g id="edge3" class="edge">
<title>\\isp\\ISPDnssec&#45;&gt;\\isp\\ISPConnector</title>
<path fill="none" stroke="#000000" d="M242.4394,-554C211.5231,-554 167.6527,-554 132.298,-554"/>
<polygon fill="none" stroke="#000000" points="132.0978,-550.5001 122.0977,-554 132.0977,-557.5001 132.0978,-550.5001"/>
</g>
<!-- \\isp\\ISPClientApi -->
<g id="node4" class="node">
<title>\\isp\\ISPClientApi</title>
<polygon fill="none" stroke="#000000" points="330.0923,-518 232.0923,-518 232.0923,-482 330.0923,-482 330.0923,-518"/>
<text text-anchor="middle" x="281.0923" y="-497.2" font-family="Courier,monospace" font-size="11.00" fill="#000000">ISPClientApi</text>
</g>
<!-- \\isp\\ISPClientApi&#45;&gt;\\isp\\ISPConnector -->
<g id="edge4" class="edge">
<title>\\isp\\ISPClientApi&#45;&gt;\\isp\\ISPConnector</title>
<path fill="none" stroke="#000000" d="M232.0408,-512.7289C202.1157,-520.4944 163.6732,-530.4703 132.0798,-538.6688"/>
<polygon fill="none" stroke="#000000" points="130.8826,-535.3635 122.0823,-541.2631 132.6409,-542.139 130.8826,-535.3635"/>
</g>
<!-- \\isp\\DnssecRecordISP -->
<g id="node5" class="node">
<title>\\isp\\DnssecRecordISP</title>
<polygon fill="none" stroke="#000000" points="340.0923,-464 222.0923,-464 222.0923,-428 340.0923,-428 340.0923,-464"/>
<text text-anchor="middle" x="281.0923" y="-443.2" font-family="Courier,monospace" font-size="11.00" fill="#000000">DnssecRecordISP</text>
</g>
<!-- \\core\\DnssecRecord -->
<g id="node12" class="node">
<title>\\core\\DnssecRecord</title>
<polygon fill="none" stroke="#000000" points="122,-330 24,-330 24,-294 122,-294 122,-330"/>
<text text-anchor="middle" x="73" y="-309.2" font-family="Courier,monospace" font-size="11.00" fill="#000000">DnssecRecord</text>
</g>
<!-- \\isp\\DnssecRecordISP&#45;&gt;\\core\\DnssecRecord -->
<g id="edge5" class="edge">
<title>\\isp\\DnssecRecordISP&#45;&gt;\\core\\DnssecRecord</title>
<path fill="none" stroke="#000000" stroke-dasharray="1,5" d="M221.6676,-428.9271C212.1432,-425.2377 202.6003,-420.934 194,-416 156.6552,-394.5751 120.054,-360.8291 97.0598,-337.6212"/>
<polygon fill="none" stroke="#000000" points="99.2923,-334.8977 89.802,-330.1877 94.2838,-339.788 99.2923,-334.8977"/>
</g>
<!-- \\inwx\\INWXConnector -->
<g id="node6" class="node">
<title>\\inwx\\INWXConnector</title>
<polygon fill="none" stroke="#000000" points="333.0923,-142 229.0923,-142 229.0923,-106 333.0923,-106 333.0923,-142"/>
<text text-anchor="start" x="247.0923" y="-127.2" font-family="Courier,monospace" font-size="11.00" fill="#000000">«abstract»</text>
<text text-anchor="start" x="237.0923" y="-115.2" font-family="Courier,monospace" font-size="11.00" fill="#000000">INWXConnector</text>
</g>
<!-- \\inwx\\DnssecRecordInwx -->
<g id="node7" class="node">
<title>\\inwx\\DnssecRecordInwx</title>
<polygon fill="none" stroke="#000000" points="565.1845,-196 440.1845,-196 440.1845,-160 565.1845,-160 565.1845,-196"/>
<text text-anchor="middle" x="502.6845" y="-175.2" font-family="Courier,monospace" font-size="11.00" fill="#000000">DnssecRecordInwx</text>
</g>
<!-- \\core\\DnssecRecordRemote -->
<g id="node11" class="node">
<title>\\core\\DnssecRecordRemote</title>
<polygon fill="none" stroke="#000000" points="350.0923,-276 212.0923,-276 212.0923,-240 350.0923,-240 350.0923,-276"/>
<text text-anchor="start" x="247.0923" y="-261.2" font-family="Courier,monospace" font-size="11.00" fill="#000000">«abstract»</text>
<text text-anchor="start" x="220.0923" y="-249.2" font-family="Courier,monospace" font-size="11.00" fill="#000000">DnssecRecordRemote</text>
</g>
<!-- \\inwx\\DnssecRecordInwx&#45;&gt;\\core\\DnssecRecordRemote -->
<g id="edge6" class="edge">
<title>\\inwx\\DnssecRecordInwx&#45;&gt;\\core\\DnssecRecordRemote</title>
<path fill="none" stroke="#000000" d="M454.8557,-196.1003C429.2091,-205.725 397.0329,-217.671 368.1845,-228 360.2848,-230.8285 351.9648,-233.7577 343.7286,-236.6276"/>
<polygon fill="none" stroke="#000000" points="342.4281,-233.3741 334.1287,-239.9598 344.7235,-239.9871 342.4281,-233.3741"/>
</g>
<!-- \\inwx\\INWXDNSSecApi -->
<g id="node8" class="node">
<title>\\inwx\\INWXDNSSecApi</title>
<polygon fill="none" stroke="#000000" points="554.6845,-142 450.6845,-142 450.6845,-106 554.6845,-106 554.6845,-142"/>
<text text-anchor="middle" x="502.6845" y="-121.2" font-family="Courier,monospace" font-size="11.00" fill="#000000">INWXDNSSecApi</text>
</g>
<!-- \\inwx\\INWXDNSSecApi&#45;&gt;\\inwx\\INWXConnector -->
<g id="edge7" class="edge">
<title>\\inwx\\INWXDNSSecApi&#45;&gt;\\inwx\\INWXConnector</title>
<path fill="none" stroke="#000000" d="M450.4509,-124C418.4464,-124 377.2933,-124 343.5683,-124"/>
<polygon fill="none" stroke="#000000" points="343.3588,-120.5001 333.3588,-124 343.3588,-127.5001 343.3588,-120.5001"/>
</g>
<!-- \\core\\DNSSecZone -->
<g id="node9" class="node">
<title>\\core\\DNSSecZone</title>
<polygon fill="none" stroke="#000000" points="323.0923,-384 239.0923,-384 239.0923,-348 323.0923,-348 323.0923,-384"/>
<text text-anchor="middle" x="281.0923" y="-363.2" font-family="Courier,monospace" font-size="11.00" fill="#000000">DNSSecZone</text>
</g>
<!-- \\core\\CONSOLE -->
<g id="node10" class="node">
<title>\\core\\CONSOLE</title>
<polygon fill="none" stroke="#000000" points="323.0923,-330 239.0923,-330 239.0923,-294 323.0923,-294 323.0923,-330"/>
<text text-anchor="start" x="247.0923" y="-315.2" font-family="Courier,monospace" font-size="11.00" fill="#000000">«abstract»</text>
<text text-anchor="start" x="257.0923" y="-303.2" font-family="Courier,monospace" font-size="11.00" fill="#000000">CONSOLE</text>
</g>
<!-- \\core\\DnssecRecordRemote&#45;&gt;\\core\\DnssecRecord -->
<g id="edge8" class="edge">
<title>\\core\\DnssecRecordRemote&#45;&gt;\\core\\DnssecRecord</title>
<path fill="none" stroke="#000000" stroke-dasharray="1,5" d="M212.0896,-275.9062C186.0831,-282.6549 156.7693,-290.2618 131.7819,-296.7461"/>
<polygon fill="none" stroke="#000000" points="130.8779,-293.3647 122.0777,-299.2643 132.6363,-300.1402 130.8779,-293.3647"/>
</g>
<!-- \\DNSAPI -->
<g id="node13" class="node">
<title>\\DNSAPI</title>
<polygon fill="none" stroke="#000000" points="531.1845,-88 474.1845,-88 474.1845,-52 531.1845,-52 531.1845,-88"/>
<text text-anchor="middle" x="502.6845" y="-67.2" font-family="Courier,monospace" font-size="11.00" fill="#000000">DNSAPI</text>
</g>
<!-- \\splitbrain\\phpcli\\CLI -->
<g id="node14" class="node">
<title>\\splitbrain\\phpcli\\CLI</title>
<ellipse fill="none" stroke="#000000" cx="281.0923" cy="-18" rx="87.1846" ry="18"/>
<text text-anchor="middle" x="281.0923" y="-14.3" font-family="Times,serif" font-size="14.00" fill="#c0c0c0">\splitbrain\phpcli\CLI</text>
</g>
<!-- \\DNSAPI&#45;&gt;\\splitbrain\\phpcli\\CLI -->
<g id="edge1" class="edge">
<title>\\DNSAPI&#45;&gt;\\splitbrain\\phpcli\\CLI</title>
<path fill="none" stroke="#000000" d="M474.1689,-63.3084C442.678,-55.9185 390.8711,-43.7613 348.8465,-33.8996"/>
<polygon fill="none" stroke="#000000" points="349.4786,-30.4529 338.9434,-31.5756 347.8793,-37.2678 349.4786,-30.4529"/>
</g>
</g>
</svg>
